<svg id="Ebene_1" data-name="Ebene 1" xmlns="http://www.w3.org/2000/svg" viewBox="0 0 208.25 90.95"><defs><style>.cls-1{fill:#424657;}.cls-2{fill:#ffd500;}</style></defs><title>LO3D</title><path id="O" class="cls-1" d="M87.82,5.29A27.85,27.85,0,0,1,90.29,3.4C77-2.95,59.8-.48,49.67,10.44a37.32,37.32,0,0,0-6.53,10,54.89,54.89,0,0,0-4.49,22.84v6.47a53.54,53.54,0,0,0,4.44,21.8h12.7c-3.57-5.72-5.38-13.24-5.38-22.6V42.37Q50.59,27.22,57,18.69A20.79,20.79,0,0,1,67.78,11.1a25.26,25.26,0,0,1,15.1.37A24.09,24.09,0,0,1,87.82,5.29Z" transform="translate(0 0.05)"/><path id="L" class="cls-1" d="M84.08,80.31a24,24,0,0,1-2.59.92H11.89V0H0V90.89H84.65A33,33,0,0,0,93,87.34a26.13,26.13,0,0,1-5.9-3.81A23.74,23.74,0,0,1,84.08,80.31Z" transform="translate(0 0.05)"/><path id="D" class="cls-2" d="M203.29,20.42A35,35,0,0,0,189.41,5.7,40.78,40.78,0,0,0,168.71.53H95.38L95,.7a26.57,26.57,0,0,0-4.68,2.7,27.85,27.85,0,0,0-2.47,1.89,24.09,24.09,0,0,0-4.94,6.18A23.37,23.37,0,0,0,80,23H91.42a17.36,17.36,0,0,1,.71-4.85,13.19,13.19,0,0,1,5.79-7.94H169q13.18.12,20.36,8.59t7.17,23.77V47.8q0,15.71-7.61,24.22t-21.27,8.5H155.23V22.81H143.4V90.19h24.82A43.32,43.32,0,0,0,189.38,85c9.85-5.55,15.89-15.52,18-26.47a56.94,56.94,0,0,0,.92-10.42V42.34A47.8,47.8,0,0,0,203.29,20.42Z" transform="translate(0 0.05)"/><path id="_3" data-name="3" class="cls-2" d="M132,50.89a22.06,22.06,0,0,0-11.43-7.76c8.2-3.4,14.26-11.26,14.06-20.32H123.3a15.25,15.25,0,0,1-3,10.07,16.09,16.09,0,0,1-9.72,5.4,26.43,26.43,0,0,1-4.52.48H97.46v9.3H106c4.82.06,10.12,1,13.85,4.31,3.48,3,4.8,7.51,4.81,12s-1.09,9.14-4.37,12.38c-4.76,4.68-12.9,5.25-19,3.39a15.32,15.32,0,0,1-6-3.33,13.58,13.58,0,0,1-2.58-3.35,15.66,15.66,0,0,1-2-8H79.23a23.1,23.1,0,0,0,4.85,14.82,23.74,23.74,0,0,0,3.06,3.22A26.13,26.13,0,0,0,93,87.34a35.6,35.6,0,0,0,19.31,2.76,28.31,28.31,0,0,0,15.84-6.82,23.82,23.82,0,0,0,7.57-14.55C136.63,62.58,135.83,56,132,50.89Z" transform="translate(0 0.05)"/></svg>